<?xml version="1.0" encoding="UTF-8"?>
<svg id="Layer_1" data-name="Layer 1" xmlns="http://www.w3.org/2000/svg" viewBox="0 0 928.37 945.92">
  <defs>
    <style>
      .cls-1 {
        fill: #f86305;
      }

      .cls-2 {
        fill: #fa6403;
      }

      .cls-3 {
        fill: #fb6503;
      }

      .cls-4 {
        fill: #fa6503;
      }

      .cls-5 {
        fill: #fa6708;
      }

      .cls-6 {
        fill: #f96606;
      }

      .cls-7 {
        fill: #fb6706;
      }

      .cls-8 {
        fill: #fc6703;
      }

      .cls-9 {
        fill: #fb6302;
      }

      .cls-10 {
        fill: #fb6403;
      }
    </style>
  </defs>
  <path class="cls-8" d="M474.43,278.73c-13.37-9.77-27.14-7-39.43,3.29l-11.12,10.89c-11-6.59-22.64-9.68-34.17-3.7-11.37,6.81-15.12,20.55-16.69,33.44-17.07-.43-34.95,9.12-34.47,27.36.22,8.5,1.56,16.68,4.4,24.93l-6.56,3.95c-5.52,3.32-9.83,8.65-11.58,15-3.37,12.24,4.73,24.96,13.41,33.66l6.13,6.14c6.52,6.54,13.84,11.6,21.36,17.15-17.15-8.87-37.13-24.69-47.77-40.46-6.54-9.69-7.79-20.75.1-29.74,3.8-4.34,8.51-7.49,13.49-10.37,1.35-.78,2.15-1.68,1.7-3.34l-2.76-10.36c-1.33-5.01-1.82-9.98-1.63-15.1.66-18.18,17.95-26.06,34.95-26.2,1.48-.01,2.28-.77,2.51-2.19,2-12.63,6.69-26.87,17.67-33.79,5.16-3.26,11.27-3.72,17.31-2.89,6.63.91,12.54,3.72,18.35,6.9.77.42,1.91.72,2.62,0l12.55-12.72c3.46-3.51,7.73-5.67,12.31-7.4,9.61-3.64,19.58-1.86,27.64,4.46,5.39,4.23,9.83,9.21,13.6,14.97.54.82,2.48.39,3.21.14,7.26-2.42,14.41-3.87,21.99-3.8,12.23.11,22.47,7.04,27.32,18.25,3.58,8.27,3.12,16.53,4.28,17.92s8.47-.07,16.1,1.46c10.15,2.04,19.52,7.86,21.7,18.21,2.22,10.5-.29,21.63-3.8,31.8-.44,1.28-.19,2.52,1.1,3.21,10.02,5.29,18.41,12.29,18.53,24.31.06,5.95-1.56,11.79-4.82,16.91-10.08,15.83-29.44,30.23-45.6,40.16-.5.53-1.01-.17-.56-.43l11.97-9.26,8.25-7.26c6.85-6.03,12.56-13.11,16.52-21.31,4.65-9.63,3.89-20.49-2.73-28.77-3.29-4.12-7.55-6.91-12.24-9.31,3.88-12.26,7.55-24.53,2.32-36.51-5.44-12.76-20.4-15.39-33.51-15.13-1.67-15.57-8.42-31.3-24.8-33.4-8.82-1.13-17.53-.21-25.89,2.61-3.97-5.23-8.1-9.88-13.26-13.65Z"/>
  <g>
    <path d="M759.79,447.94v336.46h-108.11l-1.06,2h111.17v-341l-2,2.54ZM168.58,173.22h-20.02v613.18h472.69l1.06-2H150.56V175.22h609.23s0,223.41,0,223.41l2-2.54v-222.88H168.58Z"/>
    <path d="M166.58,159.53v13.69s-.01,2-.01,2l-.22,597.5,461.98.16,1.06-2-461.04-.16.22-595.5v-2s.01-11.69.01-11.69l609.23.21-.08,214.25,2-2.54.08-213.71-613.23-.21ZM777.71,425.3l-.13,345.63h-15.79s-2-.01-2-.01l-101.03-.03-1.06,2,101.98.03h19.9s.13-350.17.13-350.17l-2,2.55ZM168.35,770.72l.22-595.5v-.11h-2v.11l-.22,597.5,461.98.16,1.06-2-461.04-.16ZM658.76,770.89l-1.06,2,101.98.04v-2l-100.92-.04Z"/>
    <g>
      <path class="cls-3" d="M564.76,721.44l-.39-20.37-8.72,20.14c-1.03.44-3.07.66-3.84-.2l-9.02-20.06-.34,20.49-5.17-.13-.05-31.22,5.76-.06,10.71,23.99,10.65-23.88h5.69s-.06,31.17-.06,31.17l-5.21.14Z"/>
      <path class="cls-5" d="M496.88,721.21c-1.84.49-3.38.34-5.27.2l-.06-13.77-13.94-.03-.05,13.69c-1.9.3-3.48.34-5.44-.03l.13-19.25v-11.65c1.74-.45,3.43-.37,5.3-.05l.09,12.89,13.92-.09.12-12.98h5.2s0,31.07,0,31.07Z"/>
      <path class="cls-7" d="M592.1,707.53l-10.63.08-.03,9.25,12.08.07c.56,1.31.49,2.83.14,4.51h-17.49s-.03-31.41-.03-31.41l17.34-.04c.59,1.48.58,2.98.01,4.44l-12.01.1v8.59s10.54.12,10.54.12c.2,1.33.29,2.41.08,4.31Z"/>
      <path class="cls-6" d="M353.93,707.47l-10.57.14-.02,9.28,12.21.07c.31,1.55.33,2.86,0,4.48h-17.51s-.04-31.4-.04-31.4l17.29-.02c.35,1.57.39,2.86.09,4.41l-12.04.08v8.61s10.56.12,10.56.12c.25,1.3.28,2.43.04,4.23Z"/>
      <path class="cls-2" d="M377.31,707.51l-10.75.12.03,9.34,11.8-.04c.6,1.25.54,2.87.12,4.51l-17.19.07.05-31.45,17.3-.06v4.4s-12.11.05-12.11.05v8.77s10.71.03,10.71.03l.03,4.27Z"/>
      <path class="cls-10" d="M330.44,703.25c.42,1.53.33,3.04.04,4.63l-9.89.03-.07,13.4c-1.77.27-3.26.26-5.16.09v-31.38s17.96-.01,17.96-.01c.62,1.42.58,2.98,0,4.36l-12.83.13.11,8.76h9.85Z"/>
      <path class="cls-9" d="M391.59,717.09l8.93-.04c.4,1.37.36,2.77.02,4.38l-16.1-.02.02-31.1,5.24-.1-.02,24.68c0,.63.12,1.32.37,1.66.28.39.95.54,1.55.54Z"/>
      <path class="cls-1" d="M448.96,694.71c-6.91-4.63-16.52-4.13-23.45.43-7.08,4.66-10.49,12.5-9.83,21.31.51,6.68,5.43,11.91,12.11,13.31,4.78,1,9.54.43,14.23-1.32-.02-1.31-.32-2.51-1.02-3.76-8.11,3.51-18.77,1.71-20.5-6.47-1.36-6.41.24-13.32,4.9-18.03,4.69-4.74,11.79-6.03,17.96-3.94,8.56,2.92,9.27,13.61,5.62,19.07-.9,1.37-3.32,3.01-4.67,1.48-1.07-1.21-.35-4.24-.11-5.98l1.31-9.38-4.3-.02c-.04.81,0,1.4-.59,2.05-2.62-3.16-6.72-3.53-10.26-1.45-4.89,2.87-7.02,9.56-4.84,14.89,1.14,2.8,3.97,4.18,6.42,4.23,2.96.06,5.28-1,7.32-3.68.95,2.05,2.41,3.09,4.34,3.44,4.4.79,8.24-1.68,10.09-5.57,3.18-6.65,2.22-15.97-4.73-20.61ZM437.5,715.35c-1.65,1.66-5.14,2.39-6.74.54-2.68-3.1-1.14-8.46,2.11-10.44,1.43-.87,2.9-1.02,4.32-.47,3.46,1.36,3.32,7.36.31,10.37Z"/>
      <path class="cls-4" d="M516.98,689.79c-8.78,0-15.9,7.12-15.9,15.9s7.12,15.9,15.9,15.9,15.91-7.12,15.91-15.9-7.12-15.9-15.91-15.9ZM524.64,713.47c-3.86,4.83-11.7,4.6-15.41-.07-3.72-4.69-3.52-12.03.76-16.3,3.31-3.29,9.33-3.57,13-.74,5.11,3.95,5.84,11.87,1.65,17.11Z"/>
    </g>
    <g>
      <polygon points="372.55 654.88 360.1 654.83 359.66 639.26 347.43 601.39 347.16 654.96 334.74 654.91 334.72 568.82 347.17 568.72 359.93 608.36 360.13 568.78 372.54 568.73 372.55 654.88"/>
      <path d="M544.08,643.63l7.76.12v-20.34s-5.96,0-5.96,0v-11.19s18.69.09,18.69.09v42.62s-24.04-.02-24.04-.02c-7.75,0-13.3-5.55-13.89-13.35l.09-59.48c.01-7.31,5.32-12.72,12.35-13.22l12.68-.04c6.75-.02,11.67,5.31,12.5,11.93l.3,13.15-12.63.03-.1-9.1c-.02-1.64-.6-2.99-1.61-3.86-1.99-1.7-7.37-1.7-9.24-.16-1.03.85-1.77,2.31-1.76,4.11l.06,53.21c0,2.73,2.13,5.47,4.81,5.51Z"/>
      <polygon points="479.21 611.05 495.15 654.81 482.13 654.88 467.43 613.08 467.24 654.94 454.64 654.83 454.65 568.78 467.21 568.71 467.47 610.41 480.29 568.84 492.29 568.78 479.21 611.05"/>
      <polygon points="653.34 643.77 653.31 654.93 624.01 654.91 624.01 568.79 636.58 568.78 636.56 643.76 653.34 643.77"/>
      <rect x="624.43" y="605.43" width="86.21" height="12.77" transform="translate(55.4746 1279.1295) rotate(-89.9789)"/>
      <rect x="465.91" y="605.46" width="86.19" height="12.69" transform="translate(-102.8552 1120.7535) rotate(-89.9945)"/>
      <path d="M274.2,581.11c-1.02-6.84-6.47-12.19-13.6-12.24l-24.22-.14v86.21l26.16-.15c6.8-.03,12.04-5.45,12.06-12.4l.2-53.5-.6-7.78ZM257.85,643.6l-8.82.1-.04-63.91,7.8.05c3.27.02,5.26,2.67,5.26,5.97v53.12c-.05,2.75-1.79,4.64-4.2,4.67Z"/>
      <path d="M612.7,584.43c.17-8.27-4.88-15.65-12.67-15.66l-12.17-.02c-7.58-.02-12.63,5.77-13.17,13.41l-.1,72.73,12.61.03v-31.44h13.01s.06,31.41.06,31.41l12.45-.05-.02-70.41ZM587.23,612.41l.04-28.02c0-2.38,1.83-4.47,3.99-4.47h4.76c2.4-.01,3.88,2.02,4.16,4.47l.07,27.81-13.02.21Z"/>
      <path d="M421.17,578.54c-1.43-5.56-6.08-9.7-11.92-9.72l-12.24-.04c-7.43-.02-13.1,6.02-13.13,13.83l-.25,72.33,12.63-.08.02-31.41,13.06.02.05,31.46h12.53s.05-69.55.05-69.55c0-2.5-.22-4.57-.8-6.84ZM396.26,612.4l.03-27.92c.15-2.31,1.57-4.15,3.86-4.52,1.8-.29,3.64-.25,5.43.04,2.3.57,3.73,2.41,3.74,4.83l.05,27.51-13.11.06Z"/>
      <path d="M323.38,654.92l-.12-73.13c-.01-7.23-5.56-12.98-12.4-12.96l-13.17.03c-7.11.5-12.31,5.92-12.33,13.25l-.16,72.78,12.67-.04v-31.42s12.69.18,12.69.18l-.03,31.31h12.85ZM297.88,612.34l.06-27.98c.01-2.14,1.35-3.9,3.41-4.34,1.89-.4,3.9-.37,5.78.03,2.1.44,3.38,2.16,3.43,4.33l.02,27.79-12.7.17Z"/>
    </g>
    <path class="cls-8" d="M474.34,356.6c-4.37,12.29-6.61,24.44-8.79,36.87-.46-6.35.2-12.27,1.48-18.42l7.12-34.15,12.49-38.62c2.95-.42,5.44-.04,7.43,2.17l-10.72,26.8-9.01,25.35Z"/>
    <path class="cls-8" d="M445.28,393.25c-2.87-30.5-12.43-60.16-23.73-89.33,2.02-2,4.42-2.72,7.08-2.62,4.22,12.94,8.08,25.4,11.08,38.67,3.82,17.49,6.26,34.77,5.56,53.28Z"/>
    <path class="cls-8" d="M428.85,401.94c-5.25-9.13-10.09-17.89-16.5-26.36-11.03-14.56-23.04-27.83-36.04-40.8,1.62-2.11,3.26-3.77,5.48-4.92,19.3,20.73,37.02,45.43,47.06,72.07Z"/>
    <path class="cls-8" d="M516.89,350.88c-13.1,14.91-23.4,30.86-32.92,48.2,2.55-8.74,6.15-16.51,10.45-24.35,9.36-17.07,20.66-32.54,33-47.75,2.54.39,4.9,1.83,5.95,4.03.64,1.34-1.08,2.35-1.73,3.09l-14.75,16.78Z"/>
    <path class="cls-8" d="M530.91,413.17c-9.5,9.61-16.95,19.58-25.68,29.75,14.04-24.58,32.11-45.97,53.45-64.62,2.79.81,4.91,3.24,5.52,6.22-11.53,9.33-22.77,18.01-33.29,28.65Z"/>
    <path class="cls-8" d="M387.95,413.05l14.23,16.8c1,1.81,3.27,2.38,3.78,4.97l-14.59-14.18c-13.79-13.4-28.13-25.62-43.7-37.44.83-2.58,2.72-4.42,4.6-6.12l9.37,8.51,11.76,11.58,14.55,15.88Z"/>
    <g>
      <path class="cls-8" d="M487.29,471.69l4.18-5.42c16.48,1.87,32.52,4.68,48.62,8.71,7.74,1.94,14.9,4.51,21.8,8.2,2.24,1.2,3.29,3.02,2.53,5.6-1.98,6.76-7.41,11.82-14.36,13.76-5.57,1.55-11.23.96-17.24.47l-6.36,5.44c-10.68,9.14-28.06,8.45-39.54.55-.58-.4-1.65-.56-2.09-.01-3.95,4.98-8.44,9.37-14.37,11.86-11.09,4.64-23.56,3.98-33.64-2.5-4.13-2.65-7.3-6.08-10.42-9.78-1.53-.17-2.49.86-3.76,1.63-8.99,5.42-20.1,6.42-29.93,2.55-5.31-2.09-9.25-5.79-13.13-9.91-5.84.61-11.47,1.17-17.11-.13-7.15-1.65-12.77-6.52-15.34-13.26-1.04-2.73.29-4.9,2.73-6.25,5.82-3.23,11.87-5.51,18.45-7.3,16.84-4.58,33.7-7.53,51.12-9.67l4.46,5.75-31.41,3.8c-11.81,1.43-32.19,5.86-42.15,11.22-.8.43-1.8,1.7-.95,2.5,3.38,3.2,17.31,3.61,24.15,3.48,2.05,2.61,4.56,4.16,7.77,5.05,13.54,3.75,27.6,4.54,41.57,2,8.71,5.86,21.02,6.15,31.84,6.13s24.97.01,33.99-6.15c13.65,2.45,27.65,1.84,41.12-1.73,7.13-1.89,7.04-5.21,8.37-5.2,6.85.06,23.46-.39,23.99-4.11.17-1.19-.53-1.97-1.68-2.5-7.73-3.59-15.62-5.99-24.09-7.73-16.34-3.37-32.5-5.55-49.13-7.03Z"/>
      <path class="cls-8" d="M455.68,404.24c-21.36,0-38.68,17.32-38.68,38.68s17.32,38.67,38.68,38.67,38.68-17.31,38.68-38.67-17.32-38.68-38.68-38.68ZM448.98,420.32c-2.59,8.7-13.85,12.83-17.47,8.87-3.61-3.96,1.68-14.26,11.55-15.78,1.95-.31,3.61.33,4.72,1.48,1.29,1.31,1.83,3.36,1.2,5.43Z"/>
    </g>
  </g>
</svg>